<svg width="150" height="36" viewBox="0 0 150 36" fill="none" xmlns="http://www.w3.org/2000/svg">
<g clip-path="url(#clip0)">
<rect width="150" height="36" fill="#37372B"/>
<path d="M108.599 26.39C107.199 26.39 106.059 26.08 105.179 25.46C104.319 24.84 103.889 23.81 103.889 22.37V8.12C103.989 8.08 104.139 8.04 104.339 8C104.559 7.94 104.789 7.91 105.029 7.91C105.869 7.91 106.289 8.27 106.289 8.99V12.44H111.209C111.269 12.54 111.329 12.68 111.389 12.86C111.449 13.02 111.479 13.2 111.479 13.4C111.479 14.08 111.179 14.42 110.579 14.42H106.289V22.22C106.289 23.02 106.509 23.59 106.949 23.93C107.409 24.25 108.049 24.41 108.869 24.41C109.209 24.41 109.589 24.35 110.009 24.23C110.429 24.11 110.779 23.97 111.059 23.81C111.179 23.93 111.289 24.08 111.389 24.26C111.489 24.44 111.539 24.65 111.539 24.89C111.539 25.33 111.279 25.69 110.759 25.97C110.239 26.25 109.519 26.39 108.599 26.39ZM120.147 24.44C120.987 24.44 121.677 24.36 122.217 24.2C122.777 24.02 123.177 23.85 123.417 23.69V19.34L119.697 19.73C118.657 19.83 117.887 20.07 117.387 20.45C116.887 20.81 116.637 21.35 116.637 22.07C116.637 22.83 116.927 23.42 117.507 23.84C118.087 24.24 118.967 24.44 120.147 24.44ZM120.117 11.75C121.857 11.75 123.237 12.14 124.257 12.92C125.277 13.7 125.787 14.93 125.787 16.61V23.72C125.787 24.16 125.697 24.5 125.517 24.74C125.357 24.96 125.107 25.17 124.767 25.37C124.287 25.65 123.647 25.89 122.847 26.09C122.067 26.31 121.167 26.42 120.147 26.42C118.267 26.42 116.807 26.05 115.767 25.31C114.747 24.57 114.237 23.5 114.237 22.1C114.237 20.78 114.667 19.79 115.527 19.13C116.387 18.45 117.597 18.03 119.157 17.87L123.417 17.45V16.61C123.417 15.61 123.117 14.88 122.517 14.42C121.917 13.96 121.107 13.73 120.087 13.73C119.247 13.73 118.457 13.85 117.717 14.09C116.977 14.33 116.317 14.6 115.737 14.9C115.577 14.76 115.427 14.6 115.287 14.42C115.167 14.24 115.107 14.04 115.107 13.82C115.107 13.54 115.177 13.31 115.317 13.13C115.457 12.95 115.677 12.78 115.977 12.62C116.517 12.34 117.137 12.13 117.837 11.99C118.537 11.83 119.297 11.75 120.117 11.75ZM129.748 23.84C130.368 23 131.018 22.18 131.698 21.38C132.378 20.58 133.058 19.76 133.738 18.92C132.898 17.9 132.118 16.94 131.398 16.04C130.678 15.12 129.938 14.17 129.178 13.19C129.258 12.79 129.398 12.48 129.598 12.26C129.818 12.04 130.098 11.93 130.438 11.93C130.778 11.93 131.038 12.02 131.218 12.2C131.418 12.36 131.628 12.58 131.848 12.86C132.368 13.56 132.898 14.31 133.438 15.11C133.998 15.89 134.578 16.67 135.178 17.45C135.918 16.51 136.618 15.62 137.278 14.78C137.938 13.92 138.618 12.98 139.318 11.96C139.418 11.94 139.528 11.93 139.648 11.93C140.068 11.93 140.398 12.03 140.638 12.23C140.878 12.41 140.998 12.66 140.998 12.98C140.998 13.2 140.948 13.41 140.848 13.61C140.768 13.81 140.628 14.04 140.428 14.3C139.808 15.06 139.168 15.84 138.508 16.64C137.868 17.42 137.228 18.19 136.588 18.95C137.368 19.97 138.148 20.98 138.928 21.98C139.728 22.96 140.518 23.95 141.298 24.95C141.258 25.33 141.128 25.63 140.908 25.85C140.688 26.07 140.398 26.18 140.038 26.18C139.698 26.18 139.418 26.1 139.198 25.94C138.998 25.76 138.758 25.49 138.478 25.13C137.938 24.41 137.378 23.65 136.798 22.85C136.238 22.03 135.678 21.24 135.118 20.48C134.418 21.4 133.708 22.34 132.988 23.3C132.288 24.26 131.608 25.21 130.948 26.15H130.528C130.068 26.15 129.718 26.05 129.478 25.85C129.258 25.65 129.148 25.4 129.148 25.1C129.148 24.94 129.178 24.78 129.238 24.62C129.318 24.44 129.488 24.18 129.748 23.84Z" fill="white"/>
<path d="M16.9421 22.31C16.9421 23.59 16.4721 24.59 15.5321 25.31C14.5921 26.03 13.2321 26.39 11.4521 26.39C10.6921 26.39 9.99211 26.32 9.35211 26.18C8.71211 26.06 8.16211 25.9 7.70211 25.7C7.26211 25.48 6.91211 25.24 6.65211 24.98C6.41211 24.7 6.29211 24.42 6.29211 24.14C6.29211 23.9 6.35211 23.67 6.47211 23.45C6.61211 23.23 6.81211 23.04 7.07211 22.88C7.61211 23.28 8.24211 23.64 8.96211 23.96C9.68211 24.26 10.5021 24.41 11.4221 24.41C13.5021 24.41 14.5421 23.71 14.5421 22.31C14.5421 21.17 13.8521 20.43 12.4721 20.09L9.98211 19.43C8.76211 19.11 7.87211 18.65 7.31211 18.05C6.75211 17.43 6.47211 16.64 6.47211 15.68C6.47211 15.16 6.57211 14.66 6.77211 14.18C6.99211 13.7 7.32211 13.28 7.76211 12.92C8.20211 12.56 8.74211 12.28 9.38211 12.08C10.0421 11.86 10.8121 11.75 11.6921 11.75C13.0921 11.75 14.2221 11.96 15.0821 12.38C15.9421 12.78 16.3721 13.25 16.3721 13.79C16.3721 14.05 16.3021 14.28 16.1621 14.48C16.0421 14.68 15.8721 14.83 15.6521 14.93C15.2921 14.69 14.7821 14.43 14.1221 14.15C13.4621 13.87 12.6821 13.73 11.7821 13.73C10.8821 13.73 10.1621 13.9 9.62211 14.24C9.10211 14.58 8.84211 15.06 8.84211 15.68C8.84211 16.14 8.99211 16.53 9.29211 16.85C9.59211 17.17 10.0921 17.41 10.7921 17.57L12.8621 18.08C14.2221 18.42 15.2421 18.93 15.9221 19.61C16.6021 20.27 16.9421 21.17 16.9421 22.31ZM25.8523 24.44C26.6923 24.44 27.3823 24.36 27.9223 24.2C28.4823 24.02 28.8823 23.85 29.1223 23.69V19.34L25.4023 19.73C24.3623 19.83 23.5923 20.07 23.0923 20.45C22.5923 20.81 22.3423 21.35 22.3423 22.07C22.3423 22.83 22.6323 23.42 23.2123 23.84C23.7923 24.24 24.6723 24.44 25.8523 24.44ZM25.8223 11.75C27.5623 11.75 28.9423 12.14 29.9623 12.92C30.9823 13.7 31.4923 14.93 31.4923 16.61V23.72C31.4923 24.16 31.4023 24.5 31.2223 24.74C31.0623 24.96 30.8123 25.17 30.4723 25.37C29.9923 25.65 29.3523 25.89 28.5523 26.09C27.7723 26.31 26.8723 26.42 25.8523 26.42C23.9723 26.42 22.5123 26.05 21.4723 25.31C20.4523 24.57 19.9423 23.5 19.9423 22.1C19.9423 20.78 20.3723 19.79 21.2323 19.13C22.0923 18.45 23.3023 18.03 24.8623 17.87L29.1223 17.45V16.61C29.1223 15.61 28.8223 14.88 28.2223 14.42C27.6223 13.96 26.8123 13.73 25.7923 13.73C24.9523 13.73 24.1623 13.85 23.4223 14.09C22.6823 14.33 22.0223 14.6 21.4423 14.9C21.2823 14.76 21.1323 14.6 20.9923 14.42C20.8723 14.24 20.8123 14.04 20.8123 13.82C20.8123 13.54 20.8823 13.31 21.0223 13.13C21.1623 12.95 21.3823 12.78 21.6823 12.62C22.2223 12.34 22.8423 12.13 23.5423 11.99C24.2423 11.83 25.0023 11.75 25.8223 11.75ZM45.473 16.97C45.473 15.85 45.153 15.03 44.513 14.51C43.893 13.99 43.053 13.73 41.993 13.73C41.193 13.73 40.483 13.83 39.863 14.03C39.243 14.23 38.713 14.46 38.273 14.72V25.94C38.173 25.98 38.023 26.02 37.823 26.06C37.623 26.12 37.403 26.15 37.163 26.15C36.303 26.15 35.873 25.79 35.873 25.07V14.84C35.873 14.42 35.953 14.08 36.113 13.82C36.293 13.54 36.593 13.27 37.013 13.01C37.533 12.69 38.223 12.4 39.083 12.14C39.943 11.88 40.913 11.75 41.993 11.75C43.813 11.75 45.243 12.16 46.283 12.98C47.343 13.8 47.873 15.09 47.873 16.85V25.94C47.773 25.98 47.613 26.02 47.393 26.06C47.193 26.12 46.983 26.15 46.763 26.15C45.903 26.15 45.473 25.79 45.473 25.07V16.97ZM57.3172 24.44C58.1572 24.44 58.8472 24.36 59.3872 24.2C59.9472 24.02 60.3472 23.85 60.5872 23.69V19.34L56.8672 19.73C55.8272 19.83 55.0572 20.07 54.5572 20.45C54.0572 20.81 53.8072 21.35 53.8072 22.07C53.8072 22.83 54.0972 23.42 54.6772 23.84C55.2572 24.24 56.1372 24.44 57.3172 24.44ZM57.2872 11.75C59.0272 11.75 60.4072 12.14 61.4272 12.92C62.4472 13.7 62.9572 14.93 62.9572 16.61V23.72C62.9572 24.16 62.8672 24.5 62.6872 24.74C62.5272 24.96 62.2772 25.17 61.9372 25.37C61.4572 25.65 60.8172 25.89 60.0172 26.09C59.2372 26.31 58.3372 26.42 57.3172 26.42C55.4372 26.42 53.9772 26.05 52.9372 25.31C51.9172 24.57 51.4072 23.5 51.4072 22.1C51.4072 20.78 51.8372 19.79 52.6972 19.13C53.5572 18.45 54.7672 18.03 56.3272 17.87L60.5872 17.45V16.61C60.5872 15.61 60.2872 14.88 59.6872 14.42C59.0872 13.96 58.2772 13.73 57.2572 13.73C56.4172 13.73 55.6272 13.85 54.8872 14.09C54.1472 14.33 53.4872 14.6 52.9072 14.9C52.7472 14.76 52.5972 14.6 52.4572 14.42C52.3372 14.24 52.2772 14.04 52.2772 13.82C52.2772 13.54 52.3472 13.31 52.4872 13.13C52.6272 12.95 52.8472 12.78 53.1472 12.62C53.6872 12.34 54.3072 12.13 55.0072 11.99C55.7072 11.83 56.4672 11.75 57.2872 11.75Z" fill="white"/>
<ellipse cx="83.5" cy="18" rx="14.5" ry="14" fill="white"/>
<path d="M81.1684 13.598C81.1684 14.1767 81.0798 14.6947 80.9024 15.152C80.7251 15.6 80.4731 15.978 80.1464 16.286C79.8291 16.594 79.4464 16.8273 78.9984 16.986C78.5504 17.1447 78.0511 17.224 77.5004 17.224C76.9498 17.224 76.4504 17.14 76.0024 16.972C75.5544 16.804 75.1671 16.566 74.8404 16.258C74.5231 15.9407 74.2758 15.558 74.0984 15.11C73.9211 14.662 73.8324 14.158 73.8324 13.598C73.8324 13.0473 73.9211 12.548 74.0984 12.1C74.2758 11.652 74.5231 11.274 74.8404 10.966C75.1671 10.6487 75.5544 10.406 76.0024 10.238C76.4504 10.07 76.9498 9.986 77.5004 9.986C78.0511 9.986 78.5504 10.0747 78.9984 10.252C79.4464 10.42 79.8291 10.6627 80.1464 10.98C80.4731 11.288 80.7251 11.666 80.9024 12.114C81.0798 12.562 81.1684 13.0567 81.1684 13.598ZM76.2684 13.598C76.2684 14.1673 76.3758 14.606 76.5904 14.914C76.8144 15.2127 77.1224 15.362 77.5144 15.362C77.9064 15.362 78.2051 15.208 78.4104 14.9C78.6251 14.592 78.7324 14.158 78.7324 13.598C78.7324 13.038 78.6251 12.6087 78.4104 12.31C78.1958 12.002 77.8924 11.848 77.5004 11.848C77.1084 11.848 76.8051 12.002 76.5904 12.31C76.3758 12.6087 76.2684 13.038 76.2684 13.598Z" fill="#37372B"/>
<path d="M93.1684 21.598C93.1684 22.1767 93.0798 22.6947 92.9024 23.152C92.7251 23.6 92.4731 23.978 92.1464 24.286C91.8291 24.594 91.4464 24.8273 90.9984 24.986C90.5504 25.1447 90.0511 25.224 89.5004 25.224C88.9498 25.224 88.4504 25.14 88.0024 24.972C87.5544 24.804 87.1671 24.566 86.8404 24.258C86.5231 23.9407 86.2758 23.558 86.0984 23.11C85.9211 22.662 85.8324 22.158 85.8324 21.598C85.8324 21.0473 85.9211 20.548 86.0984 20.1C86.2758 19.652 86.5231 19.274 86.8404 18.966C87.1671 18.6487 87.5544 18.406 88.0024 18.238C88.4504 18.07 88.9498 17.986 89.5004 17.986C90.0511 17.986 90.5504 18.0747 90.9984 18.252C91.4464 18.42 91.8291 18.6627 92.1464 18.98C92.4731 19.288 92.7251 19.666 92.9024 20.114C93.0798 20.562 93.1684 21.0567 93.1684 21.598ZM88.2684 21.598C88.2684 22.1673 88.3758 22.606 88.5904 22.914C88.8144 23.2127 89.1224 23.362 89.5144 23.362C89.9064 23.362 90.2051 23.208 90.4104 22.9C90.6251 22.592 90.7324 22.158 90.7324 21.598C90.7324 21.038 90.6251 20.6087 90.4104 20.31C90.1958 20.002 89.8924 19.848 89.5004 19.848C89.1084 19.848 88.8051 20.002 88.5904 20.31C88.3758 20.6087 88.2684 21.038 88.2684 21.598Z" fill="#37372B"/>
<path d="M82.8923 26.12C82.7056 26.1467 82.5256 26.16 82.3523 26.16C82.1789 26.1733 82.0189 26.18 81.8723 26.18C81.3123 26.18 80.8789 26.06 80.5723 25.82C80.2789 25.58 80.1323 25.1933 80.1323 24.66C80.1323 24.3 80.1856 23.94 80.2923 23.58C80.3989 23.2067 80.4923 22.88 80.5723 22.6L84.0923 9.9C84.2923 9.87333 84.4789 9.86 84.6523 9.86C84.8256 9.84667 84.9856 9.84 85.1323 9.84C85.6656 9.84 86.0856 9.95333 86.3923 10.18C86.7123 10.4067 86.8723 10.7733 86.8723 11.28C86.8723 11.6667 86.8189 12.0333 86.7123 12.38C86.6056 12.7267 86.5056 13.0733 86.4123 13.42L82.8923 26.12Z" fill="#37372B"/>
</g>
<defs>
<clipPath id="clip0">
<rect width="150" height="36" fill="white"/>
</clipPath>
</defs>
</svg>
